<svg width="32" height="32" viewBox="0 0 32 32" fill="none" xmlns="http://www.w3.org/2000/svg">
<path d="M16.5 2C12.6552 2 8.96453 3.52862 6.24805 6.24691C3.52876 8.96629 2.00075 12.6543 2 16.5C2 20.3441 3.5293 24.0348 6.24805 26.7531C8.96453 29.4714 12.6552 31 16.5 31C20.3448 31 24.0355 29.4714 26.752 26.7531C29.4707 24.0348 31 20.3441 31 16.5C31 12.6559 29.4707 8.96521 26.752 6.24691C24.0355 3.52862 20.3448 2 16.5 2Z" fill="url(#paint0_linear_401_290)"/>
<path d="M7.2425 15.8301C11.9075 13.7981 15.0175 12.4583 16.5725 11.8111C21.0175 9.96283 21.94 9.64183 22.5425 9.63095C22.675 9.62883 22.97 9.66158 23.1625 9.8172C23.3225 9.94845 23.3675 10.126 23.39 10.2506C23.41 10.3751 23.4375 10.6588 23.415 10.8803C23.175 13.4103 22.1325 19.5498 21.6025 22.3836C21.38 23.5826 20.9375 23.9846 20.51 24.0238C19.58 24.1093 18.875 23.4098 17.975 22.8201C16.5675 21.8968 15.7725 21.3223 14.405 20.4216C12.825 19.3806 13.85 18.8083 14.75 17.8733C14.985 17.6286 19.08 13.9048 19.1575 13.5671C19.1675 13.5248 19.1775 13.3673 19.0825 13.2843C18.99 13.2011 18.8525 13.2296 18.7525 13.2521C18.61 13.2841 16.3625 14.7711 12.0025 17.7128C11.365 18.1513 10.7875 18.3651 10.2675 18.3538C9.6975 18.3416 8.5975 18.0308 7.78 17.7653C6.78 17.4396 5.9825 17.2673 6.0525 16.7141C6.0875 16.4261 6.485 16.1313 7.2425 15.8301Z" fill="white"/>
<defs>
<linearGradient id="paint0_linear_401_290" x1="1452" y1="2" x2="1452" y2="2902" gradientUnits="userSpaceOnUse">
<stop stop-color="#2AABEE"/>
<stop offset="1" stop-color="#229ED9"/>
</linearGradient>
</defs>
</svg>
