<svg width="33" height="32" viewBox="0 0 33 32" fill="none" xmlns="http://www.w3.org/2000/svg">
<path fill-rule="evenodd" clip-rule="evenodd" d="M22.9866 3.50406C18.7917 2.56635 14.4415 2.56635 10.2466 3.50406L9.79459 3.60406C8.61461 3.86788 7.53087 4.45364 6.66374 5.29628C5.79662 6.13892 5.18007 7.20545 4.88259 8.37739C3.81925 12.5674 3.81925 16.9567 4.88259 21.1467C5.16629 22.2644 5.74046 23.2872 6.5469 24.1114C7.35333 24.9357 8.36336 25.532 9.47459 25.8401L10.0946 29.5414C10.1144 29.6589 10.1653 29.769 10.2421 29.8602C10.3189 29.9513 10.4187 30.0202 10.5312 30.0597C10.6436 30.0992 10.7646 30.1078 10.8815 30.0847C10.9984 30.0615 11.107 30.0074 11.1959 29.9281L14.8373 26.6707C17.5707 26.8375 20.314 26.6189 22.9866 26.0214L23.4399 25.9214C24.6199 25.6576 25.7036 25.0718 26.5708 24.2292C27.4379 23.3865 28.0544 22.32 28.3519 21.1481C29.4151 16.958 29.4151 12.5688 28.3519 8.37873C28.0543 7.20662 27.4376 6.13997 26.5702 5.29731C25.7028 4.45465 24.6188 3.86899 23.4386 3.60539L22.9866 3.50406ZM11.3719 8.26939C11.1241 8.23333 10.8714 8.2832 10.6559 8.41073H10.6373C10.1373 8.70406 9.68659 9.07339 9.30259 9.50806C8.98259 9.87739 8.80925 10.2507 8.76392 10.6107C8.73725 10.8241 8.75592 11.0401 8.81859 11.2441L8.84259 11.2574C9.20259 12.3147 9.67192 13.3321 10.2453 14.2894C10.9845 15.634 11.8943 16.8777 12.9519 17.9894L12.9839 18.0347L13.0346 18.0721L13.0653 18.1081L13.1026 18.1401C14.2182 19.2009 15.4647 20.115 16.8119 20.8601C18.3519 21.6987 19.2866 22.0947 19.8479 22.2601V22.2681C20.0119 22.3187 20.1613 22.3414 20.3119 22.3414C20.79 22.3061 21.2425 22.1117 21.5973 21.7894C22.0306 21.4054 22.3973 20.9534 22.6826 20.4507V20.4414C22.9506 19.9347 22.8599 19.4574 22.4733 19.1334C21.6966 18.4548 20.8568 17.852 19.9653 17.3334C19.3679 17.0094 18.7613 17.2054 18.5159 17.5334L17.9919 18.1947C17.7226 18.5227 17.2346 18.4774 17.2346 18.4774L17.2213 18.4854C13.5799 17.5561 12.6079 13.8694 12.6079 13.8694C12.6079 13.8694 12.5626 13.3681 12.8999 13.1121L13.5559 12.5841C13.8706 12.3281 14.0893 11.7227 13.7519 11.1254C13.2367 10.2331 12.6352 9.3935 11.9559 8.61873C11.8078 8.43639 11.6 8.3122 11.3693 8.26806L11.3719 8.26939ZM17.5239 6.66673C17.3471 6.66673 17.1775 6.73697 17.0525 6.86199C16.9275 6.98701 16.8573 7.15658 16.8573 7.33339C16.8573 7.5102 16.9275 7.67977 17.0525 7.8048C17.1775 7.92982 17.3471 8.00006 17.5239 8.00006C19.2106 8.00006 20.6106 8.55073 21.7186 9.60673C22.2879 10.1841 22.7319 10.8681 23.0226 11.6174C23.3146 12.3681 23.4479 13.1694 23.4133 13.9721C23.4096 14.0596 23.4232 14.147 23.4533 14.2293C23.4834 14.3116 23.5294 14.3872 23.5887 14.4517C23.7085 14.5819 23.8751 14.6593 24.0519 14.6667C24.2287 14.6742 24.4012 14.611 24.5315 14.4913C24.6618 14.3715 24.7392 14.2049 24.7466 14.0281C24.7879 13.0407 24.624 12.0555 24.2653 11.1347C23.9049 10.2096 23.3585 9.36822 22.6599 8.66273L22.6466 8.64939C21.2719 7.33606 19.5319 6.66673 17.5239 6.66673ZM17.4786 8.85873C17.3018 8.85873 17.1322 8.92897 17.0072 9.05399C16.8822 9.17901 16.8119 9.34858 16.8119 9.52539C16.8119 9.70221 16.8822 9.87177 17.0072 9.9968C17.1322 10.1218 17.3018 10.1921 17.4786 10.1921H17.5013C18.7173 10.2787 19.6026 10.6841 20.2226 11.3494C20.8586 12.0347 21.1879 12.8867 21.1626 13.9401C21.1585 14.1169 21.2249 14.2881 21.347 14.416C21.4692 14.5439 21.6371 14.618 21.8139 14.6221C21.9907 14.6261 22.1619 14.5598 22.2898 14.4376C22.4177 14.3155 22.4919 14.1475 22.4959 13.9707C22.5279 12.5881 22.0826 11.3947 21.1999 10.4427V10.4401C20.2973 9.47206 19.0586 8.96006 17.5679 8.86006L17.5453 8.85739L17.4786 8.85873ZM17.4533 11.0921C17.364 11.0842 17.2741 11.0944 17.1889 11.122C17.1038 11.1496 17.025 11.1942 16.9574 11.2529C16.8898 11.3117 16.8347 11.3834 16.7954 11.4639C16.7562 11.5444 16.7336 11.632 16.7289 11.7215C16.7242 11.8109 16.7376 11.9004 16.7683 11.9845C16.799 12.0687 16.8463 12.1458 16.9075 12.2112C16.9686 12.2767 17.0423 12.3291 17.1242 12.3655C17.206 12.4018 17.2944 12.4213 17.3839 12.4227C17.9413 12.4521 18.2973 12.6201 18.5213 12.8454C18.7466 13.0721 18.9146 13.4361 18.9453 14.0054C18.9469 14.0949 18.9666 14.1831 19.0031 14.2648C19.0395 14.3465 19.0921 14.42 19.1576 14.481C19.2231 14.542 19.3002 14.5891 19.3843 14.6196C19.4684 14.6502 19.5578 14.6635 19.6472 14.6587C19.7365 14.654 19.824 14.6313 19.9044 14.592C19.9848 14.5527 20.0565 14.4977 20.1152 14.4301C20.1738 14.3626 20.2183 14.2839 20.2459 14.1988C20.2735 14.1137 20.2837 14.0239 20.2759 13.9347C20.2333 13.1347 19.9826 12.4281 19.4693 11.9081C18.9533 11.3881 18.2506 11.1347 17.4533 11.0921Z" fill="#7454DB"/>
</svg>
